<svg version="1.2" xmlns="http://www.w3.org/2000/svg" viewBox="0 0 327 66" width="327" height="66"><defs><clipPath clipPathUnits="userSpaceOnUse" id="cp1"><path d="m-533-502h1440v3291h-1440z"/></clipPath><clipPath clipPathUnits="userSpaceOnUse" id="cp2"><path d="m-3 1.63h385v12h-385z"/></clipPath></defs><style>.a{fill:#f215b6}</style><g clip-path="url(#cp1)"><g clip-path="url(#cp2)"><path fill-rule="evenodd" class="a" d="m48.2 2l0.8-0.2-1.5-0.3 0.7-0.2c0.8 0 1.8 0.3 2.3 0.1 0.1-0.1-0.7-0.2-0.9-0.3q-0.3-0.1-0.5-0.3 0.7 0 1.4 0c0.6 0.1 1.2 0.1 1.8 0.1 1.1 0 2.2 0 3.4 0l-0.4-0.4 1.6 0.1c0.1 0 0.3-0.1 0.5 0 1.3 0.2 1.9 0.1 2.6-0.1q0.2 0 0.5-0.1c1.8 0.1 3.4 0.4 5 0.6q0.5 0.1 0.8 0.2 0.9 0.2 1.9 0.3 0.9 0.1 1.8 0.1c1.2 0 2.6 0 3.9 0.2q0.7 0.1 1.3 0.1 0.5 0 1-0.1l0.9 0.2q0.7-0.1 1.6-0.1 0.9-0.1 1.9 0 1.1 0.1 2.3 0.2 2.3 0.2 4.5 0.2c2.2 0 4.3 0.1 6.4 0.1q2 0.1 4 0.1c1.5-0.1 3.2 0 4.9 0.2-0.1 0.2-0.9 0.1-1.4 0.1-1.6 0-3.3 0-4.9 0q-1.1-0.1-2.2 0-1.8 0-3.7-0.1-3-0.1-5.9 0-0.2 0-0.4 0 0 0.1 0 0.1 0 0 0.1 0.1 0.1 0 0.2 0 0.1 0 0.2 0c0.8 0.2 1.6 0.3 2.3 0.3q0 0 0.1 0 0 0 0 0c1.6 0.2 2.9 0.1 4.1 0.2q3.1 0.1 5.9 0 0.4 0 0.9 0c1.9 0.1 3.7 0.1 5.4 0 0.6-0.1 1.2-0.1 2-0.2q0.6 0 1.1-0.1 0.5-0.1 0.6-0.2 0.5 0 0.9 0.1 0.3 0 0.5 0 0.2 0 0.3-0.1c0-0.1-0.4-0.2-0.7-0.2q0.3-0.1 0.7-0.1 2.3-0.1 4.8 0c1.3 0.1 2.4 0 3.7 0.1 0.2 0 0.3 0 0.5 0q0.6-0.1 1.4-0.1 0.9 0.1 1.8 0.2c0.7-0.3 2.2 0 3.4 0 0.3 0.1-0.1 0.1-0.1 0.1 0 0.1 0 0-0.2 0-1.1 0.2-2.7 0.3-4.4 0.2q-0.5 0.1-1 0.1-0.7 0-1.5 0-0.8 0-1.5 0.1-0.5 0-0.7 0-0.3 0.1-0.3 0.2 0.3 0.1 0.6 0.2c1.1 0.1 2.1 0.2 3 0.1 1.5-0.1 3.3-0.1 5-0.1q1.6-0.1 3.4 0h-0.2c0.3-0.1 0.5-0.1 0.8-0.1q0.8 0.1 1.5 0.1 0.7-0.1 1.1-0.2 0.9-0.1 2-0.1 0.9-0.1 1.7-0.1c0 0 0-0.1 0.3-0.2q-0.4 0-0.7-0.1-1.7-0.1-3.3-0.1-0.6 0-1.1 0.1-1.4 0-3.1-0.1c0 0-0.2 0-0.3 0 0.3-0.2 1.3-0.1 1.8-0.2 0.3 0 0.7 0 0.7 0q0-0.1 0-0.1 0.1-0.1 0.2-0.1 0.1 0 0.3 0 0.2 0 0.4 0c1.3 0.1 2.4 0.1 3.4 0 0.4 0 0.9 0 1.2 0q0.4 0 0.7 0c0.9-0.2 2.1-0.2 3.5-0.1q1 0 1.8 0c0.4-0.1 0.6 0 0.9 0.1h1.1l-1.5 0.2c0.3 0.3 0.6 0.3 1.1 0.3q1.2 0.1 2.2 0c0.6 0 1 0 1.7 0q0.2 0.1 0.4 0.1c0.8-0.2 1.9-0.2 3-0.2 0.6-0.2 1.6 0 2.5 0.1 0.3-0.1-0.3-0.2-0.6-0.2q1.2-0.1 2.4-0.1 0.3 0 0.8 0 0.4 0.1 0.8 0.2 0.2 0 0.4 0 0.3 0.1 0.4 0c0.4 0 1.1 0 1.4-0.1q0.2 0 0.5 0 0.3 0 0.6 0.1-0.3 0-0.5 0c-0.5 0.2-0.4 0.3 0.3 0.5 1 0 2 0 3-0.1 0.5 0 1.1 0 1.8 0 0.7 0.1 1.4 0.2 2 0.3q0.4 0.1 0.8 0.1 0.4 0 0.6 0 0.1-0.1 0.1-0.2l-0.7-0.1c0 0 0 0 0-0.1h1c0.5 0 1 0 1.5 0q1.1-0.1 2.3 0 1.2 0.1 2.3 0.1c0.8 0 1.3-0.1 2-0.1q0.8-0.1 1.7 0c1 0 2 0 2.8-0.1 0.9 0.4 1.3 0.5 2.2 0.3h0.4l0.1 0.1h0.3q0.8-0.1 1.7-0.1c0.8 0 1.7 0.1 2.6 0.2 0.2 0 0.4 0.1 0.5 0.2 0.2 0.1 0.5 0.3 0.7 0.4-0.3 0.1-0.6 0.2-0.8 0.3q0 0.1 0 0.1 0.1 0.1 0.2 0.1 0.1 0 0.2 0.1 0.1 0 0.3 0 0.2 0 0.5 0 1.3 0 2.5 0 0.4-0.1 1.1-0.1c0.4 0.1 0.8 0.1 1.2 0.2 1-0.1 2.2-0.1 3.5 0 1.3-0.1 2.9 0 4.2-0.2-0.1 0.1 0 0.2 0.2 0.3q0.4 0.1 1 0.2l2.6 0.1q0.1 0.1 0.3 0.2 0.2 0.1 0.5 0.2 0.3 0.1 0.6 0.1c0.6 0 1-0.1 1.6 0-0.9 0.2-2.2 0.2-3.6 0.1q-2-0.2-3.8-0.1c-0.4 0-0.9 0-1 0.1-0.3 0.2-1 0.2-1.8 0.1q-0.9 0-1.7 0.1-0.7 0.1-1.1 0.3c0 0.1 0.1 0.2 0.7 0.3l2.3 0.2q0.5-0.1 1-0.2 0.8-0.1 1.8-0.1 1.1 0.1 2.3 0.2c0.3 0.1 0.7 0.1 1 0.1q0.4-0.1 0.7-0.1 0.1-0.1 0-0.1 0.3 0 0.5 0c1.1 0.3 2 0.3 2.8 0.2 0.2 0 0.4-0.1 0.6-0.1 0.3 0 0.3-0.1 0.5-0.1 1.6 0.1 2.1-0.3 3.5-0.3q0.1 0 0.1-0.1 0 0 0 0-0.2-0.1-0.3-0.1-0.2 0-0.4 0c-0.6-0.1-1.2 0-1.5 0q-0.5 0.1-0.9 0.1l-1.3-0.5q1.9 0.1 3.7-0.1c0.2 0 0.6 0.1 1 0.1h2.6c0.5-0.1 1-0.1 1.7 0 0 0 0.5 0.1 0.6 0 0.2 0 0.7-0.2 1.1-0.3 0.4 0 0.9 0.1 1.2 0.1q0.7-0.2 1.1-0.3l1.6 0.1q0 0.2-0.2 0.4-0.2 0.2 0 0.4 0.2 0.2 0.7 0.4l1.5 0.7q0.4 0.1 0.8 0.1 0.3 0 0.6 0c0.6-0.1 1.4-0.2 2.1-0.3 0.8 0.1 0.6 0.4 1.2 0.5l2 0.3c0.3 0.3 0.6 0.6-0.4 0.7-0.2 0 0 0.2-0.2 0.2 0.7 0.2 1.5 0.3 2.2 0.4q0.5 0.1 0.7 0.3c0.2 0.2 0.6 0.3 1.1 0.4 0.6 0.2 1.2 0.2 1.7 0.2q1.4 0.1 2.8 0.4 0.5 0 0.9 0.1 0.5 0 0.9 0 1.3-0.1 2.2-0.3c0.6-0.2 1.4-0.3 2.2-0.3 1.6 0.3 1.8 0.6 2.7 0.9l-1.6 0.1c0 0.1 0.1 0.3-0.6 0.3-0.6 0-0.3 0.1-0.1 0.2q0.1 0.1 0.4 0.2 0.3 0.1 0.6 0.1l1.4 0.1q0.7 0.1 1.3 0.1 0.6 0 0.9-0.2 0.4-0.1 1-0.1 0.7-0.1 1.2-0.3l1.9 0.1q0.1-0.2 0.7-0.2c0.4-0.1 0.9-0.1 1.5 0l1.3 0.1c1.4 0 1.7 0 2.1-0.3l-1.6-0.6q0.4-0.3 0.7-0.5-0.6-0.2-1.6-0.5-0.9-0.2-1.8-0.4c-0.7-0.2-1.5-0.3-2.3-0.5q-0.2-0.1-0.7-0.2-0.4-0.1-0.8-0.3c0-0.1 0.1-0.2 0-0.4q0.8 0.1 1.6 0.2 0.8 0.2 1.3 0.4 0.1 0 0.3 0.1 0.1 0 0.2 0c1 0.1 1.4 0.3 1.9 0.5q0.4 0.2 1.1 0.3 1.2 0.2 2.4 0.4 0.3 0 0.7 0.1 1.3 0.1 2.5 0.3 0.3 0.1 0.7 0.2 0.3 0.1 0.5 0.2-0.3 0.1-0.3 0.3c-0.1 0.1 0.5 0.2 0.8 0.3 0.2 0.1-0.3 0.1-0.5 0.1-0.7 0-0.9 0.1-0.5 0.3q0.3 0.1 0.3 0.2 0.1 0.2 0 0.2c-0.2 0.3-0.5 0.5-0.7 0.7 0.3 0.2 0.9 0.3 0.9 0.5q0.1 0.1 0.2 0.1 0.1 0.1 0.3 0.1 0.6 0.1 1 0.3 0.4 0.1 0.6 0.3 0 0.1 0.2 0.1 0.3 0.1 0.5 0.1 0.3 0 0.5 0 0.2-0.1 0.1-0.1 0-0.2 0-0.3c0-0.1 0-0.2-0.1-0.3 0.6 0.1 1.2 0.1 1.7 0.2q0.9 0.2 1.4 0.4c0.5 0.2 0.9 0.4 1.3 0.5-0.1 0.3-0.1 0.3 0.9 0.6l5.4 0.1 1 0.2c1.1 0.2 1.3 0.2 2 0.1l0.4-0.1c0.9 0.1 1.9 0.2 2.5-0.1 0.2 0.2 0.3 0.3 0.3 0.3q-0.5 0.4-1.5 0.7c-0.1 0.1-0.3 0.1-0.5 0.2-0.6 0.2-0.8 0.5-0.4 0.9q0.2 0.2 0.7 0.4-0.7 0.4-2 0.6-1 0.2-1.6 0.5-0.6 0.3-1.7 0.5-0.6 0-0.8 0.2-0.1 0.4 0.2 0.9 0.1 0.1 0.4 0.2 0.2 0.2 0.7 0.3c0 0 0.1 0.1 0.2 0.1q0.1 0.5-0.7 0.9-0.1 0.1-0.5 0.1-0.3 0.1-0.8 0c-0.7 0-1.3 0-1.9 0-0.7 0-1.3 0-1.8 0.1q-0.7 0.1-0.9 0.4 0 0.1-0.1 0.1 0 0.1 0 0.1l1.4 0.5-1.6 0.3c-0.2 0.2 0.6 0.3 1 0.5h-0.2c-0.4 0.1-0.8 0-1.2 0l-0.3-0.1-0.1 0.1c-0.2 0.2-1.1 0-1.5 0.1-0.3 0.1-0.1 0.2 0.4 0.3q0.6 0.2 1.1 0.2 0.6 0.1 1.1 0.1 0.3-0.1 0.5-0.1 1.1-0.3 2.3-0.5 1-0.2 2.4-0.2 0.4 0 0.9 0.1 0.5 0.1 0.8 0.2h0.5c0 0 0.2 0.1 0.2 0.1q-0.3 0.4 0.5 0.9h-0.5c-0.7 0-0.3 0.2-0.4 0.3-0.4 0-1.1-0.1-1.3 0.1l0.6 0.1c-0.4 0.1-0.6 0.1-0.9 0.1q-0.2 0.1-0.3 0.1-0.1 0.1-0.2 0.1 0 0.2-0.2 0.2-0.2 0.1-0.7 0.1c-0.3 0-0.5 0.1-0.7 0.2l0.8 0.5q0 0 0 0h0.4c0.3 0.2 0.6 0.2 0.8 0.1 0.2-0.1 0.2 0 0.3 0-0.1 0.1-0.3 0.1-0.5 0.2q-0.4 0-0.8 0.1c0.5 0.3 0.5 0.3-0.3 0.5-0.7 0.1-0.5 0.2-1.1 0.2-0.6 0.1 0.1 0.3 0.5 0.3q0.5 0.1 0.9 0.2 0.5 0.1 0.8 0.2l-0.1 0.3q-0.3-0.1-0.6-0.1c-0.6-0.2-1.1-0.3-1.7-0.2l0.3 0.2-1.9-0.1c0 0.2 0.3 0.4 0.8 0.5q-0.2 0.2-0.2 0.3c0 0.1-0.2 0-0.3 0q-0.7 0.1-1.1 0.2-0.4 0.1-0.4 0.3c0 0.1 0.6 0.3 1 0.3q1.6 0 3.4 0.2c0.7 0 0.8-0.3 1.9-0.1q0 0.2-0.4 0.3c-0.3 0.1-0.8 0.1-1.3 0.1 0.3 0.3 1.9 0.3 1.9 0.6q-0.6 0-1.2-0.1-0.6-0.1-1-0.3-0.1 0-0.3 0-0.1 0-0.3-0.1-0.1 0-0.2 0-0.2 0.1-0.2 0.1 0.3 0.1 0.7 0.3c0.3 0.1 0.3 0.2 0.5 0.2 1.5 0.2 2.1 0.6 3.4 0.9 0.3 0 0.3 0.2 0.1 0.2q-0.5 0-0.8 0-0.3 0-0.4 0.1-0.3 0.2-0.8 0.2c1.3 0.4 2.8 0.8 4.5 1.1q0.5 0 0.9 0 1.4 0 2.9 0.1 0.6 0 1 0c1-0.1 1.7 0 2.4 0.3l1.1 0.5c-0.1 0.1-0.3 0.2-0.4 0.3l0.8 0.2 6.8-0.7 1.3 0.6 2-0.1q0.2 0 0.4 0.1c0.4 0.1 0.7 0.3 1.1 0.5 0.4 0.1 1.2 0.1 1.7 0.3 0.5 0.2 1.1 0.2 1.7 0.3q0.1 0.2-0.2 0.4c-0.1 0.2-0.4 0.2-0.5 0.4q0 0.2-0.3 0.3-0.4 0.1-1.1 0.2-1.9 0.4-4.4 0.6-0.2 0-0.3 0.1-0.2 0-0.2 0.1 0 0.2-0.4 0.3-0.3 0.2-0.9 0.2-0.2 0-0.2 0.1-0.3 0-0.4 0 0 0.1 0 0.2 0.1 0.1 0.3 0.2 0.2 0 0.5 0.1 0.4 0.1 0.9 0.2c0 0-0.3 0-0.3 0.1q0.2 0.1 0.1 0.3-0.1 0.1-0.5 0.2l1.6 0.8c0.9 0.1 1.9 0.3 2.6 0.6q0 0-0.1 0.1-0.1 0-0.4 0c-0.4 0.1-0.7 0.1-1.2 0.1q-0.4 0.1-0.6 0.1-0.2 0.1-0.3 0.2l0.9 0.3c-0.3 0.1-0.5 0.2-0.7 0.2q0.1 0.2 0.5 0.3 0.4 0.2 1 0.3 0.1 0 0.2 0 0.2 0 0.3 0c0.7-0.1 1.6 0.1 2.4 0.2 0.8 0.2 1.3 0.3 1.9 0.5l1.2-0.1q0.4 0.1 0.7 0.3 0.3 0.1 0.4 0.2c0 0.2-0.6 0.1-0.9 0.1-0.8 0.1-1.8 0.1-3 0-0.2 0-0.5 0-0.8 0q-0.9 0.1-1.7 0.2-0.5 0-1 0.1c0 0.2 1.2 0.3 0.5 0.4 0.2 0 0.3 0.1 0.5 0.1 0.8 0.1 1.6 0.1 2.3 0.1 1.3-0.1 2.9 0 4.4 0.1 1.7 0.2 3.4 0.2 4.8 0.2q0.8 0 1.8 0.1 1.1 0.1 2.1 0.1 0.4 0 0.8 0 0.4 0.1 0.7 0.2c0 0-0.2 0-0.2 0.1 0.7 0.3 1 0.6 2 0.9 0.8 0.1 1.6 0.3 2.1 0.1 0.5-0.2 0.4-0.3-0.6-0.7q0.3 0 0.7 0 0.4 0.1 0.7 0.2l0.8 0.3 0.7 0.3q-0.1 0.2-0.2 0.4-0.1 0.2 0.3 0.4 0.2 0.1 0.4 0.3 0.7 0.5 0.3 0.9-0.6 0.6-1.8 1.1c-0.8 0.4-1.2 0.8-1.9 1.1q-0.5 0.3-1.2 0.5c-0.8 0.3-1.8 0.6-2.7 0.9-0.9 0.3-1.9 0.5-2.9 0.7q-2.1 0.5-4.7 0.8c-1 0.2-2.1 0.4-3 0.7q-1.8 0.3-4 0.5-2 0.2-3.5 0.6-0.2 0-0.3 0.1c-0.2 0.2-0.7 0.4-1.5 0.5q0.1 0.1 0.2 0.2 0.2 0.1 0.1 0.2-0.2 0.1-0.5 0.1-0.9 0.1-1.5 0.3-0.2 0.1-0.2 0.1-0.1 0.1 0 0.2 0.2 0.1 0 0.2-0.1 0.1-0.4 0.1-0.8 0.2-1.6 0.2c-1.3 0.2-2.7 0.2-4.3 0.1-0.1 0-0.3 0-0.5 0-1.1-0.1-2.1-0.1-2.9 0q-1.5 0.1-3 0.1-2.2 0.1-4.1 0.3c-1.3-0.1-2.1 0.1-3.3 0.1q-1.6 0.1-3 0.2-2.3 0.2-4.6 0.4-2.1 0.2-3.9 0.4c-0.5 0.1-1.3 0-1.6 0.2-0.3 0.1-0.9 0.1-1.4 0.2l-1.6 0.1q-0.4 0.1-0.9 0.1c-1.4 0-2.5 0.3-3.8 0.3h-0.2c-2.4 0.4-5.1 0.6-8.2 0.7-1.7 0.1-3.7 0.1-5.5 0.2-0.5 0.2-1.5 0-2.1 0.2-0.6 0.1-1.5 0-2.2 0.1-0.7 0-1.4 0.1-2.2 0.1q-1 0-1.6 0.2-1.5 0.2-3.4 0.3c-1.8 0.1-3.4 0.2-5.1 0.2q0 0.2-0.3 0.4-0.4 0.1-1 0.1c-1.9 0.1-3.6 0.2-5.5 0.3h-0.5l-5.6 0.2c-1.6 0.1-3 0.1-4.6 0.2-0.6-0.1-0.6 0-1 0q-0.1-0.1-0.4 0l-0.1 0.1-6.4 0.2q-3.8 0.2-8 0.3-0.9 0-1.8 0.1-0.8 0-1.6 0-1.1 0-2.2 0.1-2.8 0.1-5.9 0.1c-2.1 0-3.7 0.1-5.5 0.1q-1.9 0-3.8 0c-0.6 0-1.3-0.1-2-0.1-0.6 0-0.8 0-0.9 0-0.3 0.2-1 0.1-1.5 0.1-1.1 0-1.3 0-1.5-0.4l1.3-0.2q0.5-0.1 1.2 0 0.7 0 1.4 0.1 0.3 0.1 0.5 0.1 0.3 0 0.6 0 2-0.1 4-0.2h0.1l0.1-0.4q-0.3 0-0.5 0l-6.5-0.1c-1.5 0-3-0.1-4.5-0.2-1.5 0-2.2 0-3.4 0q-0.7-0.1-1.4-0.1 0-0.1 0-0.1c0.1-0.1 0.1-0.2-0.1-0.2q-0.3-0.2-0.8-0.2-0.5-0.1-0.9-0.1c-1.3 0-2.8-0.1-4.2-0.4l-0.4 0.2q-3.1-0.1-6.3-0.2-0.7 0-1.3-0.1c-0.5-0.1-0.9-0.2-1.4-0.3q-0.7-0.1-1.4-0.1 0.2-0.1 0.5-0.2 0.3 0 0.4-0.1 0.1 0 0-0.1c-0.2-0.2-0.2-0.3 0.1-0.3q0.5 0 0.7-0.2 0.1-0.1-0.1-0.3 0-0.1-0.1-0.2h-0.1c-0.4-0.2-1.3-0.3-2-0.5q-0.5-0.1-0.9-0.1c-0.7 0-1.4 0-2.2 0q-0.5 0-1-0.1c-0.6-0.1-0.6-0.1-0.9-0.4 0.5 0 0.8-0.1 1.1-0.2q0.3-0.1 0.1-0.3c-0.4-0.3-0.8-0.7-2.5-0.8q0.8-0.1 1.6-0.1 0.3-0.1 0.4-0.1 0.1-0.1 0-0.2-0.1 0-0.3-0.1-0.2-0.1-0.5-0.1c-0.9-0.2-1.9-0.3-2.8-0.3-0.8 0-1.5 0-2.3 0l-1.1-0.1c0-0.1-0.1-0.1-0.1-0.1q0.4-0.3 0.9-0.6-0.7-0.2-1.2-0.4-0.4-0.2-0.5-0.4 0-0.1 0.1-0.1 0-0.1 0.2-0.1 0.4-0.1 0.6-0.2 0.2-0.1 0.2-0.2l-0.8-0.4q-3.7-0.3-7.2-0.4h-2.1c-0.2-0.1-0.1-0.1 0.1-0.1 0.2 0 0.9 0 1.4 0q0.6 0 1-0.1 0.4-0.1 0.6-0.2l-0.7-0.4c0-0.1 0.1-0.2 0.5-0.2q0.4 0 0.5-0.1 0.2-0.1 0-0.2 0-0.1 0.1-0.2 0.9 0 1.6-0.1 0.4 0 0.6 0 0.3-0.1 0.3-0.2 0.1-0.1-0.1-0.2-0.1-0.1-0.4-0.2c-0.8-0.1-1.6-0.1-2.1 0q-0.3 0.1-0.8 0.1-0.6 0.1-1.2 0c-0.5-0.1-1-0.1-1.3-0.1q-0.6 0-0.8 0.2-0.7 0-1.4-0.1-0.7-0.1-1.3 0-1 0-2.1 0c-2 0-4.1-0.1-6.1-0.1-0.5 0-1 0.1-1.5 0-0.5 0-1 0.1-1.6 0q-0.2 0-0.4 0-0.1 0-0.3 0c-1.1 0.1-2.5 0.1-3.9 0.1-2 0-4.1 0-6.1 0q-0.9 0.1-1.7 0.2-0.6 0-1.3 0c-0.3 0-0.6 0-0.6 0.2 0.1 0.1-0.4 0-0.7 0q-1.5-0.1-3-0.2-1.5-0.2-2.8-0.2c-0.7 0-1.3 0.1-2.2-0.1 0.1 0 0.1-0.1 0.3-0.2-0.7-0.2-1.4-0.3-2.2-0.5-0.8-0.1-1.6-0.1-2.4-0.1l-1-0.4q-0.4-0.1-0.8-0.1-0.4 0-0.7 0-0.2 0-0.5 0-0.3-0.1-0.5-0.1-0.3-0.1-0.7-0.2-0.4 0-0.7 0c-0.8-0.1-1.5-0.1-2.2-0.3q-0.3-0.1-0.4-0.2 0-0.1 0.2-0.2 0.3-0.1 0.4-0.3 0-0.2-0.2-0.4-0.2-0.1-0.1-0.2 0-0.2 0.3-0.2c0.6-0.3 0.4-0.4-0.5-0.7q-0.2-0.1-0.5-0.2-0.3 0-0.7-0.1-0.7 0-1.5-0.1c-0.2 0-0.5 0-0.8 0-1.6 0-1.9-0.2-2.4-0.5l-0.3-0.2q-1.1-0.2-2.2-0.3-1.2-0.2-2.2-0.2-0.5 0-1-0.1c-1-0.1-2-0.2-3-0.2-0.6-0.1-1.2-0.1-1.8-0.2-0.6-0.1-1.2-0.3-1.6-0.5-0.4-0.1-0.9-0.2-1.5-0.3-0.6-0.1-0.7-0.2-0.3-0.3 0.4-0.2 1-0.3 1.6-0.4q0.2-0.1 0.3-0.2 0.1-0.1-0.1-0.2-0.2-0.2-0.1-0.4 0.1-0.1 0-0.2-0.1-0.1-0.3-0.2-0.3-0.1-0.6-0.2-0.3-0.1-0.7-0.1c-1-0.1-2-0.3-3-0.4q-0.7-0.1-1.3-0.2-1.3-0.3-2.7-0.4c-0.5-0.1-0.9-0.1-1.2-0.3q-1.6-0.4-2.8-0.9-0.3-0.2-0.8-0.3-0.5-0.1-1.1-0.2c-0.3-0.1-0.5-0.2-0.7-0.2q-0.3-0.3-0.1-0.5 0.3-0.2 0.9-0.3 0.6-0.1 1.1-0.2 0.6-0.1 1.4-0.2c0.6 0 1.1-0.1 1.4-0.3-1.7-0.2-3.4-0.6-4.9-0.5l-1.2-0.2q0.1-0.2 0.2-0.3 0.4-0.2 0.3-0.5-0.1-0.2 0-0.3 0.2-0.1 0.6-0.2c1.7-0.3 3.6-0.5 5.1-0.9q0.8-0.1 1.7-0.1c0.6 0 0.6-0.1-0.1-0.3q-0.6-0.1-1.2-0.2c-1.7 0-2.5 0.4-4.5 0.3l-0.9-0.5q-0.4 0-0.7 0l-3.5 0.3q-0.4 0-0.6 0.1-0.2 0.1-0.1 0.3 0 0.1-0.2 0.3-0.1 0.1 0.1 0.2c0.4 0.2-0.1 0.2-0.4 0.3q-0.1 0-0.2 0-0.2 0-0.3 0-0.1-0.1-0.3-0.1-0.1 0-0.2-0.1c-0.5-0.1-0.9-0.3-1.4-0.5 0.4-0.2 0-0.5 0.5-0.7q0.1-0.1 0.1-0.1 0-0.1-0.1-0.2-0.4-0.2-0.3-0.4 0-0.2 0.4-0.3h0.1c-0.7-0.3-0.5-0.5-0.8-0.7l-0.6-0.2c-1.7-0.3-1.7-0.3-3.1-0.3-0.3-0.1 0.1-0.1 0.4-0.2l2.3-0.2c1.5-0.1 3-0.2 4.7-0.3 1.7-0.1 3.6-0.3 5.3-0.4q0.2 0 0.2 0 0.1-0.1 0.1-0.1-0.1-0.1-0.3-0.1-0.1-0.1-0.3-0.1-0.8-0.1-1.7-0.2l-1.1-0.1-0.3-0.1c-0.2-0.1-0.4-0.3-0.7-0.3q-0.3-0.1-0.7-0.1-0.4-0.1-0.7 0c-0.6 0-1.1 0.1-1.6 0.1-0.5 0.1-0.8 0.1-1.3 0.2q-1.4 0-2.6 0.1-1.1 0.2-2.1 0.4c-0.4 0.1-0.7 0.1-1.4 0.1q-0.4-0.1-0.7-0.3-0.3-0.1-0.2-0.2 0.1-0.1 0.3-0.1 0.2-0.1 0.6-0.1 1 0 1.8-0.1 1.2-0.2 2.7-0.2c0.4 0 0.6-0.1 0.9-0.1 0.3 0 0.6-0.1 0.9 0 1.1 0 1.6-0.1 2.2-0.2q0.3-0.1 0.4-0.2 0.1-0.1-0.1-0.3-0.5-0.3-1.1-0.6-0.3-0.1-0.8-0.2-0.4-0.1-1-0.2-0.3-0.1-0.3-0.3 0-0.2 0.4-0.3c0.5-0.1 0.9-0.3 2.1-0.2q0.8 0 1.5-0.1c1 0 2.2 0 3.4 0.2q0.4 0 0.9 0c2.1 0.1 4.1 0.1 6.1 0 1 0 2.1 0 3.2 0 2.6 0.1 5 0 7.5 0q2-0.1 3.5-0.3 0.3-0.1 0.5-0.2c-0.7-0.1-1.4-0.2-2.1-0.3-0.7-0.1-1.4-0.1-1.9 0q-0.5 0-1.2 0-0.8 0-1.5-0.2h1.4c0.9-0.1 1.8-0.1 2.7-0.2 1.4-0.1 2.7-0.2 4.2-0.2q1.7-0.1 3.1-0.4 0.9-0.2 2.2-0.3c0.5 0 0.5 0 0.9-0.2-0.3-0.2-0.6-0.2-1-0.2q-3.2 0-6 0.1-1.5 0-2.5 0.2c-0.2 0.1-0.6 0.1-1 0.1q-1.6 0-3.1 0.1-2.1 0.1-4.5 0c-0.3-0.1 0.1-0.1 0.1-0.1 1.2-0.1 2.5-0.2 3.7-0.3q0.6-0.1 1.2-0.1c1.4 0 2.6-0.1 3.5-0.4 0 0 0.5 0 0.8-0.1q0.2-0.1 0.2-0.2c-0.3-0.1-0.7-0.1-1-0.1q-1.3 0-2.5 0.1-1.1 0.1-2.4 0.1c-0.6 0-1.2 0-1.8 0.1q-0.6-0.1-1.1-0.1 0.6-0.2 1.6-0.3c0.5 0 1.2-0.1 1.3-0.3-0.3-0.1-0.5-0.1-0.8-0.1q-0.6 0.1-1.2 0.1-1.4 0.1-2.9 0.1-0.8 0-1.5 0c-1 0-2 0.1-3 0.2-2 0-3.8 0.2-5.7 0.3-0.4 0-0.8 0.1-1.3 0-0.6-0.1-0.6-0.1-0.7-0.1q-0.2-0.2-0.1-0.3 0.2-0.1 0.6-0.1 2.6-0.2 4.9-0.5 1 0 1.7-0.2 0.6-0.1 1.4-0.2 1.1-0.1 2.3-0.1 0.5-0.1 0.9-0.2 0.4-0.1 0.5-0.2l-0.9-0.3q-0.3 0-0.5-0.1l-8.1 0.4-0.8 0.1c-0.9 0-1.1-0.1-1.9-0.4 1.9-0.2 3.4-0.5 4.4-0.9q-0.4 0-0.7-0.1-2.3-0.1-4.3 0-1.2 0-2.4 0.1c0.3-0.2 1.2-0.2 1.8-0.3q2.1-0.1 3.6-0.4 0.6-0.2 1.4-0.2 0.7 0 1.2-0.2 0.5-0.1 0.6-0.3 0-0.2 0.3-0.4c-0.3-0.1-0.7-0.3-1.2-0.4-0.6-0.1-1.1-0.2-1.6-0.2q-1.7 0-3.4-0.2-0.8-0.1-1.6-0.1c-0.5 0-1 0-1.4-0.1-0.5-0.1-1-0.2-1.3-0.3q-0.7-0.3-1.3-0.5c-0.4-0.2-0.9-0.4-1.4-0.6q-0.6 0-1.2 0-0.5 0-1.1-0.1-0.6 0-1.1-0.2 0.3-0.1 0.7-0.3-0.5-0.2-0.7-0.4-0.1-0.2 0-0.3c0-0.1-0.3-0.3-0.4-0.4q-0.2-0.2-0.1-0.4 0.2-0.1 0.7-0.1 0.6-0.1 0.9-0.3 0.1 0 0.1-0.1 0 0-0.1-0.1-0.1-0.1-0.3-0.1-0.2-0.1-0.4-0.1-0.8-0.1-1.5-0.1-1.2 0-2.3 0c-0.8 0-1.7-0.1-2.6-0.2-0.8-0.1-1.5-0.2-1.8-0.5-0.4-0.2-1-0.2-1.5-0.4q0.4-0.2 1.4-0.3 0.6-0.1 1-0.2 0.4-0.1 0.5-0.3l-1.4-0.5c-1.1-0.2-1.8 0-3.1 0l1.4-0.3q0 0 0 0c-0.1-0.4-0.3-0.5-1.6-0.7l-0.8-0.1-1.1-0.1q-0.3-0.1-0.4-0.2-0.1-0.1 0-0.2 0.3-0.1 0.2-0.3-0.1-0.2 0-0.3 0.2-0.1 0.6-0.1c0.2 0 0.2-0.1 0.3-0.1q0.2-0.2 0.6-0.2 0.4-0.1 1-0.1 1.6 0 3-0.1l-0.2-0.1q1.5 0.1 2.7 0c0.8-0.1 1.8-0.1 2.6-0.1 0.7 0 1.3-0.1 1.5-0.2 0.3-0.2 1.1-0.2 1.8-0.2q0.6 0 1.2 0c0.5 0 1.1 0 1.7 0.1q0.3 0 0.5 0 2.5 0 4.9 0 0.5 0 1.2 0.1 0.3 0 0.5 0c2.5-0.1 5.4 0 7.8-0.2q0.5 0 1 0c0.8 0 1.5 0 2-0.1q0.4-0.1 1-0.1 0.6-0.1 1.2 0c0.8 0.1 1.5 0 2 0q1.7-0.1 3.4-0.1 0.6 0 1-0.1 0.4-0.1 0.5-0.2c-0.3-0.2-0.6-0.2-0.9-0.1q-1.8-0.1-3.5-0.1-1.5 0-2.9 0.1c-0.5 0-1.1 0-1.6-0.1-0.7-0.1-1.4-0.2-2-0.2q-0.7 0.1-1.4 0-0.5 0-0.9-0.1-0.2 0-0.4-0.1-0.2 0-0.3 0-0.2 0-0.4 0-0.1 0-0.2 0.1c-0.4 0.2-1.4 0.1-2.3 0.1-1.2-0.3-2.2-0.1-3.4-0.2q-0.1-0.1-0.2-0.1-0.2 0-0.2 0.1c-2.4 0.1-5 0.1-7.5 0.2q-0.4 0-0.9-0.1c-2-0.2-4-0.3-5.5-0.1q-0.3 0-0.7 0c-1-0.1-2-0.1-2.9 0-1.3 0-2.6 0-4 0-1 0-1.8 0-2.5 0.2 0 0-0.4 0-0.7 0q-0.3-0.2-0.5-0.3-0.3-0.2-0.8-0.4-0.5-0.1-1.1-0.3c-0.7-0.1-0.8-0.2-0.3-0.3 1.4-0.2 3-0.4 4.8-0.3q2.4-0.1 4.7-0.1c0.9 0 1.9 0 2.8 0q0.4 0 0.9 0 0.6 0.1 1.1 0.1 1.6-0.1 3.6 0 0.7 0 1.3 0 1.6-0.1 3.3 0 1.1 0 2.1 0c0.2 0 0.4 0 0.6 0 2 0.2 3.4 0 5.2 0q1.3 0.1 2.5 0 2.3 0 4.7 0c2.2 0 4.1 0 6.2-0.1q0.6 0 1.1 0 2.7-0.1 5.8-0.1 0.8 0 1.3 0 0.5-0.1 0.8-0.3 0.1-0.1-0.1-0.2-0.4-0.2-0.9-0.3l-11.5-0.1q-0.7 0-1.4 0-2 0-4.1 0c-1.4-0.1-2.7 0-4.1 0q-0.6 0-1.2 0-4.3-0.1-8.3-0.1c-1.1 0-2.3 0-3.5 0-1.1 0-2.7 0-4.1 0l-4.2 0.1q-1.2 0-2.4 0.1c-1-0.5-1.3-0.6-2.6-0.8q-0.7-0.1-1.3-0.1c-1.3 0.1-2.9 0-4.1 0-0.7 0-1.4 0.1-1.8 0.2q-0.6 0.1-1.4 0.2c-1.3-0.3-1.4-0.6-0.4-0.7 0.3 0 0.7 0 0.9-0.1q0.1 0 0.4-0.1 0.3 0 0.6 0.1c0.7 0 1.4 0 1.9 0q0.8-0.1 1.8-0.1c0.5 0.1 1 0 1.4-0.1 0.4 0 0.8-0.1 1.5 0q0.1 0 0.3 0 0.2 0 0.3 0c0.7-0.1 1.6-0.1 2.5 0q2.2 0 4-0.1 1.1-0.1 1.8-0.3 0.2-0.1 0.6-0.1c1.2 0 2.5 0.1 3.8 0.2q0.8 0.1 1.5 0.2 1.5 0.1 2.9 0.1 2-0.1 4.2 0 1.3 0 2.5 0 1.2-0.1 2.6 0c0.9 0 1.7 0 2.3-0.1q0.3-0.1 0.5-0.2c-1.3-0.3-2.7-0.4-3.8-0.3-0.5 0-0.8 0-1.3-0.1v0.1q-0.1 0-0.4 0-0.2 0-0.5-0.1 0.1-0.2 0.2-0.3 1.3 0 2.6-0.1c0.7 0 1.6 0.2 2.2 0.1 1.2 0.1 1.9-0.1 3-0.1 1 0.1 2.2 0.2 3.2 0.2q1.4 0 2.7-0.1 0.4 0 1 0 0.8 0.1 1.4 0 0.5 0 0.8-0.2-0.2-0.1-0.5-0.3c0.4-0.2 1-0.2 1.6-0.2h1q0.4 0 0.6-0.1 0.1-0.1 0-0.2c-1.9-0.4-1.9-0.4-3.3-0.1l-1.8-0.1zm78.4 1.7h0.1q0 0 0 0 0 0-0.1 0zm0 0.1q0.3 0 0.5 0 0 0 0 0-0.1 0-0.3-0.1h-0.1c0 0 0 0.1-0.1 0.1zm150.8 21.9v-0.1l-0.1 0.1h0.1q0 0 0 0zm-0.3 0h0.1 0.1zm-1.4 1.4c-0.1-0.1-0.1 0 0 0zm0 0q0.1 0 0.2 0l-0.2-0.1zm20.3 14.6l-0.1 0.1 0.1-0.1zm0 0zm0.3 0.1v-0.1h-0.3zm-42.5-29.8q-0.6-0.1-1.3-0.2-0.1 0-0.3 0-0.1 0.1-0.2 0.1c0 0.1 0.2 0.1 0.4 0.1q0.4 0.1 0.8 0.1 0.4 0 0.7 0l0.3-0.1zm-222.7 23.1h0.1q0 0 0 0 0 0-0.1 0zm0.8 0c1.1-0.1 2.2-0.2 3.3-0.3q2.2-0.2 4.9-0.2c0.7 0 1.2-0.1 1.7-0.2q0.3-0.1 0.9-0.1l4.7-0.3q0.5-0.1 0.8-0.1-0.6-0.1-0.9-0.2-0.5 0-0.8 0.1c-0.3 0.1-0.7 0.1-1.1 0.1q-0.8 0-1.5 0-1.3 0.1-2.6 0.1c-0.3 0.2-1.3 0.1-2.1 0.1l-0.7 0.1q-3.2 0.2-6.2 0.6-0.6 0-1 0.1-0.1 0.1-0.1 0.2 0.4 0 0.7 0zm94 19q-0.1 0-0.1 0 0 0 0 0zm1.5 0q0.6 0.1 1.2 0.1 3.3 0 6.8 0.2 0.5 0 0.9 0l1.9-0.1c0.6 0 0.6 0 0.2-0.4q-0.5-0.1-1.1-0.1c-0.2-0.1-0.6-0.1-0.7-0.1-0.5 0.2-1.4 0.1-2.2 0.1-2.3 0-4.6-0.1-6.9-0.2q-0.7 0-1.4 0-0.4 0-0.8 0.1-0.1 0-0.1 0-0.1 0-0.1 0.1 0 0 0 0 0.1 0 0.1 0.1 0.3 0.1 0.6 0.2 0.8 0 1.6 0zm18.2-49.3l2.2-0.1c0.3 0 0.5-0.1 0.8-0.1q2.3 0.1 4.2-0.1 0.7-0.1 1.5-0.1 2.5 0.1 4.7-0.1 1.4 0 2.6-0.1 0-0.1 0.1-0.1 0 0-0.1-0.1 0 0 0-0.1-0.1 0-0.2 0-0.1 0-0.2-0.1-0.1 0-0.3 0c-1-0.1-1.9-0.1-2.7 0q-1.2 0-2.5 0c-0.8 0.1-1.4 0.2-2.4 0.1-0.4 0-0.8 0-1.1 0.1-0.5 0.1-1.3 0.1-2.1 0q-0.7 0-1.4 0-1.6 0.1-3 0.2-0.5 0-1 0h-4.9q-1.7 0-3.5 0-1.4 0-2.6 0.1-1.2 0.1-2.7 0.1c-1.5 0.1-3 0.1-4.6 0.2q-1.6 0-3.2 0c-0.5 0-1 0-1.3 0.1-0.2 0.1-0.6 0-1 0-1.8-0.1-3.6-0.1-5.1 0q-0.3 0-0.6 0c-1.5 0.1-3 0.1-4.4 0.1q-0.5 0-1 0.1 0.1 0 0.3 0.1 0.2 0.1 0.5 0.1 1.9 0.1 3.7 0.1 2.9-0.1 6.1 0c1.7 0 3.2 0 4.4-0.2 1-0.1 2.3-0.1 3.6 0.1 0.6 0 1.1 0.1 1.6 0q0.7 0 1.5 0 1.7 0.1 3.3 0c1 0 2-0.1 3-0.1 1.1-0.1 2.7-0.1 4-0.2q1.9-0.1 3.8 0zm-92.8-1.9c0.1 0.2 0.5 0.3 1 0.4 1.5 0.2 3.1 0.2 4.3 0.2 0.7-0.1 1.6-0.1 2.6 0 1.1 0.1 2.1 0.1 2.9 0q0.3 0 0.4-0.1c0.1-0.1 0.1-0.1 0.1-0.1q-0.1-0.1-0.3-0.1-0.1-0.1-0.3-0.1l-5.2-0.1h-0.9c-1.6-0.1-3.1-0.1-4.6-0.1zm10 2.9c0.7 0.3 0.8 0.3 1.2 0.4 1.9 0.2 3.9 0.4 5.6 0.3q0.6 0 1-0.1 0.2 0 0.2 0 0.1-0.1-0.1-0.2l-0.6-0.2q-1.7-0.1-3.4-0.1c-1.3-0.1-2.5-0.1-3.8-0.1zm63 46.9c0.7 0.4 0.7 0.4 1.9 0.5q1.3 0.1 2.5 0.1 1.5 0 3 0 0.3 0 0.5-0.1 0.2 0 0.2-0.1-0.2-0.2-0.6-0.2-0.3-0.1-0.7-0.1h-0.6c-0.6 0-1.3-0.1-1.9-0.1q-0.6 0.1-1.3 0-0.8 0-1.5-0.2zm-58.8-49.4q0.3 0.1 0.6 0.2c1 0.2 2 0.3 2.8 0.3 0.4 0 0.8-0.1 1.2 0q1.2 0.1 2.2 0c0 0 0.2 0 0.2 0l0.2-0.3q-0.5-0.1-1-0.1-1.6-0.1-3.2-0.1c-1.1-0.1-1.5-0.1-2.2-0.1q-0.4 0-0.8 0.1zm-26 35.3l1.4 0.5c0.5 0.1 0.9 0.1 1.3 0q0.5 0 0.6-0.2 0.2-0.1 0-0.2-0.1-0.1-0.5-0.2-0.4-0.1-0.8-0.2-0.5-0.1-0.9-0.1zm12.1-3.1c-0.9-0.1-1.8-0.1-2.6-0.1-0.5 0.1-1.2 0.1-1.9 0-1.3-0.1-2.5-0.2-3.5-0.1 0 0 0 0.1-0.2 0.1-0.1 0.1 0.5 0.1 0.6 0.1 1.1 0.1 2.1 0.1 3 0.1q0.8 0 1.7 0 1.2 0.1 2.3 0c0 0 0.3 0 0.6-0.1zm101.9-31.9q-0.6-0.1-1.4-0.2-0.7-0.1-1.4-0.1-0.5 0-0.7 0.1-0.3 0.1-0.2 0.3c0.4 0 0.8 0.1 1 0.1 0.9 0 1.6-0.1 2.7-0.2zm83.2 7.4q-0.6-0.1-1.2-0.1-0.5-0.1-1 0c-0.2 0-0.1 0.1-0.1 0.1q0 0.1 0 0.1 0 0 0.1 0 0.1 0.1 0.2 0.1 0.1 0 0.2 0 0.6 0 1 0 0.5 0 0.8-0.1zm5.5 1.1q-0.1-0.1-0.3-0.2-0.3 0-0.6 0-0.5 0-0.8 0c-0.3 0-0.1 0.2 0.2 0.3q0.3 0 0.5 0 0.3 0.1 0.5 0.1 0.2-0.1 0.3-0.1 0.2 0 0.2-0.1zm-162.3-8.6c-0.8-0.2-1.4-0.1-2.2-0.2-0.7 0-0.8 0-0.7 0.1 0 0.1 0.5 0.1 0.8 0.1q0.7 0.1 1.2 0.1 0.6 0 0.9-0.1zm172.5 27.5q-0.7-0.1-1.3-0.1-0.1 0-0.1 0.1-0.1 0 0 0.1c0 0 0.3 0 0.4 0.1 0.6 0 0.7-0.1 1-0.2zm61.5 15.7c0.3 0.2 0.4 0.2 0.7 0.3q0.2 0 0.3 0 0.2 0 0.3 0 0.2 0 0.1-0.1c0 0-0.3-0.1-0.4-0.1q-0.5-0.1-1-0.1zm-248.2-43.9c-0.6-0.1-1.2-0.2-1.6-0.1 1 0.1 1 0.1 1.6 0.1zm10.3 0.9c-0.7-0.2-1-0.2-1.3-0.2q-0.1 0-0.2 0.1 0 0 0.1 0 0 0.1 0.2 0.1 0.1 0 0.2 0 0.5 0 1 0zm33-0.6c0 0 0.1 0-0.1-0.1q-0.1 0-0.2 0 0 0-0.1 0 0 0 0 0.1zm19.5 52.3h-0.4l0.2 0.1h0.4zm132.8-44.3c-0.1 0-0.3 0-0.3 0q-0.1 0-0.1 0 0 0.1 0.1 0.1c0 0 0.1 0 0.2 0zm-21.5 0.8q-0.2 0-0.3 0v0.1h0.3zm-188.3 12.9q-0.1 0-0.3 0l-0.1-0.1c0 0 0.1 0.1 0.2 0.1q0.1 0 0.2 0zm19.7-22.1h-0.2z"/></g></g></svg>